<svg id="filled_outline" height="512" viewBox="0 0 512 512" width="512" xmlns="http://www.w3.org/2000/svg" data-name="filled outline"><path d="m440 160v32h-72v-48h40z" fill="#639aff"/><path d="m176 384 72-48v-32h-112v80z" fill="#548aff"/><circle cx="112" cy="440" fill="#e8f2ff" r="48"/><circle cx="424" cy="440" fill="#e8f2ff" r="48"/><path d="m360 416h128v-17.828l-58.06-46.172z" fill="#4f7ff7"/><path d="m120 384h224a32 32 0 0 0 32-32v-160h16l44.93306 157.26572a52.352 52.352 0 0 1 1.48814 21.7859 52.352 52.352 0 0 1 -51.82587 44.94838h-266.59533z" fill="#548aff"/><path d="m384 175.27a16.72963 16.72963 0 0 1 -16.73 16.73h-80.28a32.02437 32.02437 0 0 1 -24.59-11.51l-6.4-7.68994v51.19994l65.79 10.96a36.16252 36.16252 0 0 1 25.65991 53.23l-35.44991 63.81-40 16 32-96h-72a40.00186 40.00186 0 0 1 -40-40v-81.1001a46.89992 46.89992 0 0 1 85.91992-26.02l8.34008 12.51024 9.74 14.60986 72.79 6.62012a16.72032 16.72032 0 0 1 15.21 16.64988z" fill="#ffceb6"/><path d="m250.4 166.08008 5.6 6.72v51.19992h-64v-73.1001a46.89992 46.89992 0 0 1 85.91992-26.02l8.34008 12.51024z" fill="#ffb401"/><path d="m208 56h48a0 0 0 0 1 0 0v24a24 24 0 0 1 -24 24 24 24 0 0 1 -24-24v-24a0 0 0 0 1 0 0z" fill="#ffceb6"/><path d="m232 24a24 24 0 0 1 24 24v8a0 0 0 0 1 0 0h-48a0 0 0 0 1 0 0v-8a24 24 0 0 1 24-24z" fill="#ffb401"/><path d="m208 80h16l16-24h-32z" fill="#b1712c"/><path d="m352 270.62988a36.185 36.185 0 0 1 -4.55 17.56006l-35.45 63.81006-40 16 32-96h-72a40.00186 40.00186 0 0 1 -40-40v-8h64l65.79 10.96a36.17434 36.17434 0 0 1 30.21 35.66988z" fill="#718799"/><path d="m272 368 40-16 24 16v16h-64z" fill="#e0edff"/><path d="m135.99989 304h8.00017a55.99994 55.99994 0 0 1 55.99994 55.99994v.00011a55.99994 55.99994 0 0 1 -55.99994 55.99995h-120.00006a0 0 0 0 1 0 0v-.00011a111.99989 111.99989 0 0 1 111.99989-111.99989z" fill="#639aff"/><path d="m144 272h120v32h-120z" fill="#91c0ff"/><path d="m440 160v32h-32v-48z" fill="#91c0ff"/><path d="m24 128h168v144h-168z" fill="#548aff"/><path d="m376 416 35.02944 35.02944a16.97054 16.97054 0 0 0 12 4.97056 16.97054 16.97054 0 0 0 16.97056-16.97055 16.97054 16.97054 0 0 0 -4.97056-12l-11.02944-11.02945z" fill="#d1e4ff"/><path d="m56 216h104a35.09937 35.09937 0 0 1 -33.29819 24h-37.40361a35.09937 35.09937 0 0 1 -33.2982-24z" fill="#bed3f7"/><rect fill="#ffb401" height="48" rx="24" width="72" x="72" y="168"/><path d="m24 416h80v32h-80z" fill="#d1e4ff"/><path d="m104 416h32a0 0 0 0 1 0 0 32 32 0 0 1 -32 32 0 0 0 0 1 0 0v-32a0 0 0 0 1 0 0z" fill="#bed3f7"/><path d="m492.97949 391.91016-46.70337-37.14063a60.69091 60.69091 0 0 0 -1.65063-7.70215l-42.01929-147.06738h37.3938a8.00008 8.00008 0 0 0 8-8v-32a7.99869 7.99869 0 0 0 -4.42236-7.15527l-32-16a7.99583 7.99583 0 0 0 -3.57764-.84473h-40a8.00008 8.00008 0 0 0 -8 8v5.78564l-59.46582-5.40673-15.95508-23.93164a54.77847 54.77847 0 0 0 -27.05115-21.178 31.83143 31.83143 0 0 0 6.47205-19.26927v-16h24v-16h-24a32 32 0 0 0 -64 0v32a31.92405 31.92405 0 0 0 10.67438 23.83228 55.32856 55.32856 0 0 0 -17.223 16.30566 8.03039 8.03039 0 0 0 -1.45138-.13794h-168a8.00008 8.00008 0 0 0 -8 8v144a8.00008 8.00008 0 0 0 8 8h112v16a120.13623 120.13623 0 0 0 -120 120v32a8.00008 8.00008 0 0 0 8 8h34.324a56.00566 56.00566 0 0 0 107.34307-32h204.66582a55.99549 55.99549 0 1 0 107.34326 0h10.32385a8.00008 8.00008 0 0 0 8-8v-17.82812a8.001 8.001 0 0 0 -3.02051-6.26172zm-63.73877-40.44727a44.077 44.077 0 0 1 1.26123 18.457 44.57064 44.57064 0 0 1 -43.90674 38.08011h-200.33074a64.41618 64.41618 0 0 0 13.73553-17.05981v1.05981h144a40.04552 40.04552 0 0 0 40-40v-152h1.96533zm.13184 81.22363a8.97038 8.97038 0 1 1 -12.68656 12.68555l-21.372-21.37207h25.372zm-317.37256-8.68652h14.62891a24.11694 24.11694 0 0 1 -14.62891 14.62891zm143.335-192 65.13623 10.85645a28.15767 28.15767 0 0 1 19.98535 41.44921l-34.06811 61.32276-21.34447 8.53784 26.54541-79.636a8.00022 8.00022 0 0 0 -7.58941-10.53026h-72a32.03635 32.03635 0 0 1 -32-32zm-49.36027 144c.239-.92529.45148-1.86084.64954-2.80151l45.81323-30.54224a7.99943 7.99943 0 0 0 3.5625-6.65625v-24h8a8.00008 8.00008 0 0 0 8-8v-24h20.90039l-28.48975 85.46973a8.00643 8.00643 0 0 0 -.41064 2.53027v8zm74.02527-2.58374 31.064-12.42554 16.936 11.29053v3.71875h-48zm60.4375-12.07251-17.86133-11.9082 31.8667-57.36035a44.15751 44.15751 0 0 0 -31.34131-65.002l-59.10156-9.85054v-24.47852a39.89177 39.89177 0 0 0 22.98779 7.25586h80.28662c.24341 0 .48389-.01147.72559-.01855v152.01855a24.0275 24.0275 0 0 1 -24 24v-8a7.99943 7.99943 0 0 0 -3.5625-6.65625zm-84.4375-81.34375v16h-104v-16zm-16 32v19.71875l-32.3537 21.56909a63.90425 63.90425 0 0 0 -21.38183-41.28784zm192-128h-16v-27.05566l16 8zm-32-32v32h-9.59473a24.71891 24.71891 0 0 0 -14.40527-31.865v-.135zm-31.93555 14.584a8.72595 8.72595 0 0 1 -.79 17.416h-80.28666a23.93849 23.93849 0 0 1 -18.437-8.63477l-6.78027-8.13647 22.67431-18.1394 4.89893 7.34814a7.99879 7.99879 0 0 0 5.93213 3.5293zm-152.06445-102.584h9.05206l-5.33331 8h-3.71875zm8 24a7.99943 7.99943 0 0 0 6.65625-3.5625l13.625-20.4375h3.71875v16a15.98644 15.98644 0 0 1 -29.835 8zm8-56a16.01833 16.01833 0 0 1 16 16h-32a16.01833 16.01833 0 0 1 16-16zm6.8999 80a38.82147 38.82147 0 0 1 32.3667 17.32227l4.26929 6.4038-24.01044 19.2085-13.37945-16.05566-12.292 10.24218 22.39844 26.87891h-.25244v40h-48v-65.10059a38.94388 38.94388 0 0 1 38.8999-38.89941zm-206.8999 24h152v128h-152zm104 176h8a48 48 0 0 1 0 96h-111.69531a104.13948 104.13948 0 0 1 103.69531-96zm-104 112h64v16h-64zm120 16a40.01607 40.01607 0 0 1 -76.68719 16h28.68719a40.068 40.068 0 0 0 39.19507-32h5.45642a40.056 40.056 0 0 1 3.34851 16zm312 0a40.00031 40.00031 0 1 1 -79.73706-4.4231l21.10962 21.10962a24.97065 24.97065 0 0 0 37.5979-32.68652h17.67529a39.87987 39.87987 0 0 1 3.35425 16zm16-32h-52.63379a60.24359 60.24359 0 0 0 18.52112-33.09668l34.11267 27.12793z"/><path d="m167.58936 218.5293a7.99985 7.99985 0 0 0 -7.58936-10.5293h-12.30511a31.89589 31.89589 0 0 0 -3.4878-36.89307l13.44965-13.4497-11.31348-11.31446-15.53882 15.53882a31.85065 31.85065 0 0 0 -10.80444-1.88159h-24a31.97556 31.97556 0 0 0 -27.69489 48h-12.30511a7.99985 7.99985 0 0 0 -7.58936 10.5293 43.0426 43.0426 0 0 0 40.8877 29.4707h37.40332a43.0426 43.0426 0 0 0 40.8877-29.4707zm-87.58936-26.5293a16.01833 16.01833 0 0 1 16-16h20.686l-10.34278 10.34277 11.31348 11.31446 15.17456-15.17456a15.96936 15.96936 0 0 1 -12.83126 25.51733h-24a16.01833 16.01833 0 0 1 -16-16zm46.70166 40h-37.40332a27.05982 27.05982 0 0 1 -19.23586-8h75.875a27.05966 27.05966 0 0 1 -19.23582 8z"/></svg>